<?xml version="1.0" encoding="UTF-8"?>
<!DOCTYPE svg PUBLIC "-//W3C//DTD SVG 1.1//EN" "http://www.w3.org/Graphics/SVG/1.1/DTD/svg11.dtd">
<!-- Creator: CorelDRAW 2019 (64-Bit) -->
<svg xmlns="http://www.w3.org/2000/svg" xml:space="preserve" width="1080px" height="1080px" version="1.1" style="shape-rendering:geometricPrecision; text-rendering:geometricPrecision; image-rendering:optimizeQuality; fill-rule:evenodd; clip-rule:evenodd"
viewBox="0 0 1080 1080"
 xmlns:xlink="http://www.w3.org/1999/xlink"
 xmlns:xodm="http://www.corel.com/coreldraw/odm/2003">
 <defs>
  <style type="text/css">
   <![CDATA[
    .fil0 {fill:url(#id0);fill-rule:nonzero}
   ]]>
  </style>
  <linearGradient id="id0" gradientUnits="userSpaceOnUse" x1="125.59" y1="528.24" x2="1042.42" y2="528.24">
   <stop offset="0" style="stop-opacity:1; stop-color:#FAA954"/>
   <stop offset="0.639216" style="stop-opacity:1; stop-color:#FC552A"/>
   <stop offset="1" style="stop-opacity:1; stop-color:red"/>
  </linearGradient>
 </defs>
 <g id="Layer_x0020_2">
  <metadata id="CorelCorpID_0Corel-Layer"/>
  <path class="fil0" d="M143.2 1020.23l647.46 -4.28c-2.72,-18.7 -5.64,-35.72 -9.72,-52.78 -4.78,-19.97 -11.24,-40.37 -20.97,-64.21 -3.11,-7.63 -23.06,-21.51 -37.86,-31.8 -12.7,-8.84 -22.58,-15.72 -21.16,-23.02 1.22,-6.22 5.65,-8.84 14.17,-7.18l8.63 1.69c-3.51,-4.15 -8.3,-9.75 -13.66,-16.03 -20.31,-23.79 -47.58,-55.74 -51.66,-82.47l-0.06 -1.48c0.08,-3.92 0.24,-7.4 0.39,-10.79 0.52,-11.31 0.98,-21.43 -0.13,-22.08 -2.85,-1.67 -8.04,-3.69 -13.57,-5.85 -9.66,-3.76 -20.25,-7.89 -26.21,-13.19 -7.22,-6.42 -9.24,-13.56 -2,-21.71 3.71,-4.17 7.22,-9.64 10.83,-15.26 8.86,-13.79 18.24,-28.39 35.18,-34.39l2.31 -0.49 120.61 -8.93c8.73,-4.03 13.42,-9.56 15.23,-16.33 2.14,-8.05 0.81,-18.32 -2.53,-30.19 -1.13,-4.01 -0.57,-7.48 1.33,-10.42 2.32,-3.6 6.09,-5.48 10.74,-5.98 2.9,-0.32 6.24,-0.1 9.71,0.52 10.86,1.93 25.01,8.45 29.47,14.41 16.53,22.09 29.51,48.11 39.61,72.71 10.03,24.43 17.21,47.37 22.21,63.65 0.91,2.95 2.05,5.56 3.39,7.84 4.61,7.85 11.96,12.33 20.49,14.16 9.35,2.01 20.08,1 30.45,-2.19 6.14,-1.88 12.09,-4.51 17.53,-7.7 12.21,-7.17 23.82,-18.04 31.68,-30.78 6.63,-10.75 10.5,-22.79 9.57,-34.92 -0.5,-6.51 -2.45,-11.4 -5.3,-14.94 -2.69,-3.34 -6.32,-5.62 -10.36,-7.01 -4.33,-1.49 -9.12,-1.95 -13.77,-1.59 -6.73,0.52 -12.93,2.67 -16.87,5.84l-0.79 0.55c-4.25,2.71 -4.63,8.85 -5.03,15.39 -0.43,7.03 -0.89,14.36 -4.63,21.75 -2.35,4.65 -6.08,8.19 -10.54,10.57 -4.17,2.22 -9.01,3.4 -13.89,3.46 -4.87,0.06 -9.82,-0.99 -14.23,-3.22 -4.81,-2.44 -9,-6.24 -11.81,-11.52 -9.49,-17.8 -15.88,-36.76 -22.26,-55.69 -8.14,-24.13 -16.25,-48.2 -30.53,-68.19 -3.25,-4.54 -9.99,-7.6 -16.92,-10.74 -7.8,-3.53 -15.78,-7.15 -22.33,-13.78l-3.44 -3.48 1.16 -4.76c0.15,-0.63 -2.44,-3.91 -5.22,-7.43 -6.11,-7.72 -12.67,-16.02 -9.78,-27.49 3.71,-14.69 14.7,-16.47 29.28,-18.82 3.66,-0.59 7.62,-1.24 11.69,-2.21 -1.5,-3.52 -4.06,-8.06 -7.36,-13.23 -11.16,-17.47 -30.05,-40.73 -45.86,-56.67 -8.96,-9.03 -13.34,-24.71 -13.08,-39.08 0.11,-5.88 0.95,-11.59 2.52,-16.59 1.76,-5.56 4.45,-10.45 8.1,-14.07 4.3,-4.26 9.7,-6.73 16.21,-6.61 23.58,0.43 43.96,-8.28 64.05,-16.87 6.27,-2.67 12.51,-5.34 18.49,-7.63 0.43,-0.16 1.03,-1.51 1.62,-3.48 0.64,-2.1 0.95,-4.5 0.88,-6.95 -0.07,-2.46 -0.53,-5.01 -1.43,-7.38 -1.42,-3.7 -4.06,-6.85 -8.19,-8.11l-47.54 -14.37 -3.31 -1.86c-15.11,-13.47 -32.34,-30.24 -50.34,-47.76 -53.87,-52.45 -114.89,-111.86 -148.88,-111.5l-133.15 1.39 -1.64 -6.83c-3.25,-13.54 -8.12,-25.64 -13.42,-31.56 -1.17,-1.31 -2.03,-2.07 -2.46,-2.11 -0.04,0 -0.28,0.42 -1.04,1.33 -4.25,5.09 -8.46,16.76 -12.17,37.56l-2.46 13.79 -11.36 -8.17c-15.93,-11.45 -28.36,-12.56 -36.24,-8.85 -4.41,2.08 -7.34,5.69 -8.46,9.63 -1.05,3.69 -0.5,7.67 1.96,10.8 4.29,5.43 14.02,8.86 30.79,6.54l20.74 -2.88 -12.47 16.84c-13.38,18.05 -33.11,26.13 -51.99,33.86 -14.78,6.05 -28.97,11.86 -36.83,21.9 -2.76,3.52 -5.34,6.69 -7.93,9.86 -10.55,12.91 -21.2,25.95 -25.88,40.76 -7.9,24.99 -8.26,52.7 -8.62,79.83 -0.36,27.36 -0.72,54.18 -8.35,78.43l-1 2.1c-4.36,6.82 -10.12,13.68 -16.07,20.74 -12.15,14.46 -25.16,29.93 -24.22,43.84 0.44,6.42 1.97,15.09 4.89,21.49 1.02,2.23 2.16,4.07 3.39,5.19 0.41,0.37 0.76,0.59 1.01,0.57 0.31,-0.02 0.7,-0.13 1.17,-0.35 4.88,-2.23 10.76,-5.61 16.97,-9.18 24.48,-14.08 53.26,-30.63 67.2,-7.07 8.09,13.67 17.47,30.69 26.13,47.67 7.6,14.89 14.76,30 20.15,43.12 0.22,0.52 0.4,1 0.56,1.43 2.8,7.74 4.48,20.64 3.8,32.13 -0.79,13.42 -5.01,25.74 -14.53,29.67l0.01 0.01 -0.69 0.26c-14.26,5.17 -35.12,18.22 -51.63,33.92 -12.4,11.8 -22.08,24.8 -23.83,36.33l-0.56 3.72 -3.09 2.17c-25.34,17.79 -28.02,29.99 -32.67,51.1 -1.88,8.57 -4.06,18.47 -8.14,31.26l-2.9 4.24c-23.72,18.81 -47.52,40.51 -68.02,64.75 -20.3,24.01 -37.36,50.52 -47.86,79.19l-0.21 0.48c-8.49,19.48 -13.93,37.9 -17.09,56.28 -2.7,15.74 -3.73,31.44 -3.56,47.76zm657.62 13.23l-674.7 4.47 -0.3 -8.57c-0.72,-20.66 0.2,-40.24 3.57,-59.85 3.36,-19.56 9.14,-39.17 18.14,-59.91 11.26,-30.73 29.41,-58.98 50.95,-84.45 20.73,-24.52 44.59,-46.45 68.41,-65.5 3.13,-10.22 5.12,-19.27 6.86,-27.17 5.4,-24.52 8.59,-39.02 36.87,-59.64 3.55,-14.63 14.62,-29.56 28.38,-42.65 18.19,-17.29 41.52,-31.81 57.69,-37.68 -0.02,0.01 -0.03,0.01 0,0l0.01 0 -0.01 0c0.05,-0.01 0.05,-0.01 0.09,-0.03l-0.08 0.03 0.08 -0.03c0.01,0 0.01,0 0.01,0 2.05,-0.96 3.17,-7.16 3.6,-14.42 0.55,-9.28 -0.68,-19.33 -2.77,-25.1 -0.12,-0.33 -0.21,-0.58 -0.28,-0.75 -5.05,-12.28 -12.04,-26.99 -19.6,-41.81 -8.58,-16.82 -17.75,-33.47 -25.57,-46.69 -5.11,-8.62 -25.73,3.24 -43.28,13.33 -6.64,3.82 -12.91,7.43 -18.42,9.94 -2.53,1.16 -4.96,1.78 -7.31,1.94 -5.5,0.37 -10.14,-1.59 -14.04,-5.12 -3.07,-2.79 -5.55,-6.6 -7.52,-10.91 -3.92,-8.58 -5.93,-19.62 -6.48,-27.63 -1.42,-20.9 13.98,-39.21 28.36,-56.31 5.23,-6.21 10.3,-12.25 14.03,-17.86 6.58,-21.71 6.91,-46.76 7.25,-72.31 0.38,-28.54 0.76,-57.66 9.38,-84.94 5.67,-17.92 17.42,-32.31 29.05,-46.55 2.7,-3.3 5.39,-6.6 7.73,-9.59 10.71,-13.69 27.04,-20.38 44.06,-27.34 10.07,-4.12 20.41,-8.36 29.34,-14.21 -10.97,-1.98 -18.72,-6.85 -23.57,-12.99 -6.2,-7.86 -7.66,-17.58 -5.14,-26.45 2.45,-8.62 8.67,-16.44 17.9,-20.79 10.72,-5.05 25.5,-5.43 42.77,3.53 3.87,-16.69 8.51,-27.31 13.47,-33.25 4.81,-5.76 10.21,-8.06 15.92,-7.6 5.24,0.43 10,3.29 14.19,7.97 6.22,6.96 11.73,18.94 15.61,32.39l119.36 -1.25c41.22,-0.43 104.99,61.65 161.3,116.46 17.07,16.62 33.43,32.55 48.33,45.91l45.68 13.82c10.08,3.05 16.34,10.29 19.56,18.72 1.6,4.19 2.41,8.73 2.54,13.17 0.13,4.45 -0.43,8.77 -1.57,12.53 -2.12,7.01 -6.36,12.61 -12.24,14.86 -6.22,2.38 -12.03,4.86 -17.86,7.35 -21.78,9.31 -43.86,18.75 -71.23,18.25 -1.36,-0.03 -2.54,0.54 -3.52,1.5 -1.53,1.52 -2.77,3.92 -3.69,6.84 -1.1,3.5 -1.69,7.5 -1.76,11.62 -0.19,10.19 2.48,20.86 7.98,26.41 16.54,16.68 36.4,41.15 48.2,59.63 4.26,6.65 7.55,12.69 9.41,17.53 3.14,8.17 2.63,14.66 -2.65,18.62 -1.02,0.76 -2.14,1.34 -3.36,1.74 -7.17,2.32 -13.85,3.4 -19.79,4.36 -8.02,1.29 -14.07,2.27 -14.94,5.72 -0.8,3.15 2.97,7.91 6.46,12.33 4.24,5.36 8.27,10.45 8.94,16.55 4.03,3.06 9.24,5.42 14.35,7.73 9.11,4.13 17.98,8.15 24.02,16.59 15.76,22.08 24.31,47.42 32.87,72.82 6.15,18.26 12.32,36.55 21.09,53 0.98,1.84 2.49,3.19 4.23,4.07 1.87,0.95 3.99,1.39 6.09,1.37l0.04 0c2.08,-0.03 4.1,-0.5 5.79,-1.4 1.36,-0.73 2.46,-1.74 3.09,-2.98 2.11,-4.17 2.45,-9.63 2.77,-14.86 0.68,-10.99 1.32,-21.31 12.62,-28.82 6.63,-5.24 16.28,-8.74 26.34,-9.51 6.9,-0.53 14.12,0.2 20.8,2.49 6.99,2.4 13.4,6.5 18.36,12.66 4.99,6.2 8.36,14.32 9.16,24.66 1.23,16.07 -3.71,31.71 -12.19,45.47 -9.38,15.22 -23.22,28.17 -37.75,36.71 -6.63,3.89 -13.85,7.08 -21.25,9.35 -13.11,4.03 -26.93,5.26 -39.27,2.61 -13.16,-2.83 -24.62,-9.93 -32.01,-22.51 -2.04,-3.47 -3.74,-7.31 -5.04,-11.56 -4.91,-15.98 -11.95,-38.48 -21.66,-62.13 -9.63,-23.47 -21.92,-48.17 -37.4,-68.85 -2.1,-2.8 -11.03,-6.27 -18.44,-7.59l-0.18 -0.03c2.87,12.24 3.6,23.39 0.98,33.21 -3.31,12.42 -11.5,22.18 -26.66,28.62l-2.82 0.69 -120.85 8.96c-10.69,4.32 -18.14,15.92 -25.2,26.91 -3.46,5.39 -6.84,10.65 -10.64,15.29 4.21,2.97 12.2,6.08 19.54,8.95 6.21,2.41 12.02,4.68 16.12,7.08 10.28,6.03 9.59,21.14 8.82,38.01 -0.15,3.21 -0.3,6.5 -0.37,9.43 3.65,21.74 28.76,51.16 47.49,73.11 14.23,16.65 25.3,29.62 23.63,38.15 -0.89,4.56 -3.27,7.49 -7.42,8.59 15.24,10.76 32.27,23.72 36.64,34.42 9.99,24.47 16.69,45.72 21.73,66.76 5.01,20.97 8.28,41.35 11.47,64.36l1.37 9.93 -10.06 0.07z"/>
 </g>
</svg>
