<?xml version="1.0" encoding="UTF-8"?>
<!DOCTYPE svg PUBLIC "-//W3C//DTD SVG 1.1//EN" "http://www.w3.org/Graphics/SVG/1.1/DTD/svg11.dtd">
<!-- Creator: CorelDRAW 2019 (64-Bit) -->
<svg xmlns="http://www.w3.org/2000/svg" xml:space="preserve" width="1080px" height="1080px" version="1.1" style="shape-rendering:geometricPrecision; text-rendering:geometricPrecision; image-rendering:optimizeQuality; fill-rule:evenodd; clip-rule:evenodd"
viewBox="0 0 1080 1080"
 xmlns:xlink="http://www.w3.org/1999/xlink"
 xmlns:xodm="http://www.corel.com/coreldraw/odm/2003">
 <defs>
  <style type="text/css">
   <![CDATA[
    .fil0 {fill:url(#id0);fill-rule:nonzero}
   ]]>
  </style>
  <linearGradient id="id0" gradientUnits="userSpaceOnUse" x1="115.44" y1="548.3" x2="1022" y2="548.3">
   <stop offset="0" style="stop-opacity:1; stop-color:#964A9A"/>
   <stop offset="1" style="stop-opacity:1; stop-color:#07704F"/>
  </linearGradient>
 </defs>
 <g id="Layer_x0020_1">
  <metadata id="CorelCorpID_0Corel-Layer"/>
 </g>
 <g id="Layer_x0020_2">
  <metadata id="CorelCorpID_1Corel-Layer"/>
  <path class="fil0" d="M296.1 339.87c-0.24,-95.57 22.51,-160.72 56.98,-204.5 48.3,-61.35 119.06,-80.43 182.07,-82.34 73.92,-2.25 127.91,26.24 166.26,73.74 44.13,54.66 67.01,134.46 75.52,221.1 3.5,-1 8.83,-3.52 15.06,-6.46 31.81,-15.03 83.47,-39.44 128.05,23.19 22.67,31.84 -17.8,65.45 -56.88,97.91 -27.65,22.96 -54.49,45.25 -51.76,59.56 17.95,94.06 42.25,154.45 72.69,191.97 29.6,36.46 65.36,51.24 107.06,54.63 14.89,1.22 23.7,7.05 28.01,15.65 3.25,6.47 3.55,14.05 1.72,22.06 -1.6,6.99 -4.88,14.46 -9.19,21.8 -14.03,23.91 -40.57,47.41 -55.19,48.11 -21.1,1 -39.29,0.59 -55.24,0.22 -37.29,-0.85 -61.48,-1.4 -81.95,18.64 -4.48,4.39 -8.83,10.55 -13.22,16.76 -10.49,14.87 -21.18,30.02 -39.42,32.15 -9.03,1.05 -19.85,1.42 -31.31,1.81 -29.86,1.03 -64.36,2.21 -80.58,17.03 -7.59,6.94 -15.73,16.48 -24.16,26.36 -23.5,27.54 -49.08,57.51 -81.81,54.19 -7.84,-0.79 -18.53,-0.67 -29.81,-0.55 -27.25,0.3 -57.64,0.64 -69.25,-12.03 -8.2,-8.95 -16.15,-19.18 -24.48,-29.9 -24.68,-31.76 -52.83,-67.97 -83.72,-68.62 -12.38,-0.26 -27.3,1.35 -42.61,3.01 -39.09,4.23 -80.48,8.71 -101.49,-15.35 -6.95,-7.97 -12.73,-16.73 -18.6,-25.62 -7.44,-11.28 -15.02,-22.78 -25.13,-32.3 -3.34,-3.14 -9.66,-6.37 -15.67,-9.45 -7.83,-4.01 -15.23,-7.8 -19.05,-12.79 -5.2,-6.8 -5.2,-13.45 3.41,-20.03 21.55,-16.49 37.96,-31.23 51.49,-47.76 13.45,-16.42 24.16,-34.77 34.42,-58.58l5.37 -12.31c26.43,-60.74 62.31,-143.21 35.73,-201.48 -25.44,-13.42 -55.67,-31.65 -78.1,-53.98 -24.53,-24.42 -39.87,-53.65 -30.91,-87.05 1.45,-5.42 3.35,-10.26 5.64,-14.58 9.05,-17.03 23.85,-25.88 41.79,-28.98 16.65,-2.88 35.93,-0.61 55.52,4.65 17.86,4.79 36.07,12.07 52.74,20.12zm70.83 -193.61c-33.87,43.03 -55.63,108.87 -53.04,207.85l0.4 15.07 -13.33 -7.07c-18.96,-10.08 -40.92,-19.64 -62.15,-25.33 -17.33,-4.65 -34.07,-6.72 -48,-4.31 -12.65,2.19 -23.01,8.27 -29.18,19.88 -1.69,3.2 -3.11,6.81 -4.19,10.86 -6.98,26.02 5.91,49.73 26.29,70.02 21.68,21.59 51.7,39.35 76.47,52.27l3.82 3.89c32.42,65.71 -6.01,154.02 -34.2,218.81 -0.8,1.84 -1.59,3.65 -5.3,12.25 -10.93,25.38 -22.44,45.04 -36.97,62.78 -13.81,16.87 -30.27,31.87 -51.53,48.33 2.53,1.6 6.22,3.48 10.03,5.43 7.15,3.66 14.66,7.51 19.73,12.28 11.5,10.83 19.71,23.27 27.75,35.47 5.5,8.33 10.91,16.54 17.16,23.69 14.98,17.15 51.7,13.18 86.39,9.42 15.76,-1.7 31.13,-3.37 44.81,-3.08 39.37,0.82 70.23,40.54 97.3,75.37 8.38,10.79 16.39,21.08 23.52,28.87 6.29,6.86 32.58,6.57 56.15,6.31 11.83,-0.13 23.04,-0.25 31.68,0.62 23.6,2.4 46.06,-23.93 66.71,-48.13 8.68,-10.17 17.07,-20 25.68,-27.87 21.02,-19.22 59,-20.52 91.88,-21.64 10.83,-0.38 21.07,-0.73 29.86,-1.75 10.39,-1.22 18.78,-13.1 27.01,-24.77 4.84,-6.85 9.62,-13.63 15.29,-19.17 25.79,-25.24 52.87,-24.63 94.63,-23.68 15.58,0.36 33.35,0.76 54.07,-0.22 9.61,-0.46 29.29,-19.72 40.86,-39.42 3.42,-5.83 5.99,-11.62 7.18,-16.84 0.96,-4.19 0.99,-7.77 -0.26,-10.28 -1.56,-3.09 -5.78,-5.27 -13.68,-5.92 -46.36,-3.77 -86.2,-20.29 -119.33,-61.12 -32.27,-39.77 -57.81,-102.67 -76.34,-199.75 -4.68,-24.48 26.11,-50.05 57.82,-76.38 32.92,-27.34 66.99,-55.64 53.78,-74.19 -36.03,-50.63 -79.46,-30.11 -106.19,-17.48 -9.17,4.33 -16.69,7.88 -23.05,8.49 -9.8,0.94 -15.75,-2.9 -16.88,-14.65 -8.07,-84.11 -29.84,-161.29 -71.88,-213.37 -34.96,-43.29 -84.32,-69.25 -152.06,-67.19 -58.66,1.78 -124.35,19.32 -168.71,75.65zm100.96 58.94c14.4,0 27.47,5.6 36.95,14.66 9.61,9.17 15.55,21.85 15.55,35.85 0,14.01 -5.94,26.69 -15.55,35.86 -9.48,9.06 -22.55,14.66 -36.95,14.66 -14.39,0 -27.46,-5.6 -36.95,-14.66 -9.6,-9.17 -15.55,-21.85 -15.55,-35.86 0,-14 5.95,-26.68 15.55,-35.85 9.49,-9.06 22.56,-14.66 36.95,-14.66zm24.82 27.41c-6.32,-6.03 -15.09,-9.76 -24.82,-9.76 -9.72,0 -18.49,3.73 -24.81,9.76 -6.2,5.92 -10.04,14.09 -10.04,23.1 0,9.02 3.84,17.19 10.04,23.11 6.32,6.03 15.09,9.76 24.81,9.76 9.73,0 18.5,-3.73 24.82,-9.76 6.2,-5.92 10.04,-14.09 10.04,-23.11 0,-9.01 -3.84,-17.18 -10.04,-23.1zm146.66 80.37c-13.24,2.22 -26.13,-0.93 -36.25,-7.8 -10.26,-6.97 -17.68,-17.73 -19.84,-30.64 -2.16,-12.9 1.35,-25.49 8.78,-35.41 7.34,-9.79 18.5,-16.96 31.75,-19.18 13.25,-2.22 26.13,0.93 36.26,7.8 10.26,6.97 17.68,17.73 19.84,30.64 2.16,12.9 -1.36,25.49 -8.79,35.41 -7.33,9.8 -18.5,16.96 -31.75,19.18zm-26.4 -22.35c6.51,4.42 14.86,6.43 23.51,4.98 8.63,-1.44 15.87,-6.06 20.58,-12.36 4.62,-6.17 6.82,-13.98 5.48,-21.97 -1.34,-7.98 -5.95,-14.65 -12.33,-18.98 -6.5,-4.42 -14.85,-6.43 -23.5,-4.98 -8.64,1.45 -15.87,6.06 -20.59,12.36 -4.62,6.17 -6.81,13.98 -5.47,21.97 1.33,7.98 5.95,14.65 12.32,18.98zm-64.39 22.73c18.4,0 35.23,4.56 47.56,11.93 13.68,8.18 22.14,19.92 22.14,33.29 0,13.36 -8.46,25.11 -22.14,33.28 -12.33,7.38 -29.16,11.94 -47.56,11.94 -18.4,0 -35.23,-4.56 -47.57,-11.94 -13.68,-8.17 -22.14,-19.92 -22.14,-33.28 0,-13.37 8.46,-25.11 22.14,-33.29 12.34,-7.37 29.17,-11.93 47.57,-11.93zm38.53 27.03c-9.7,-5.8 -23.31,-9.38 -38.53,-9.38 -15.23,0 -28.84,3.58 -38.54,9.38 -8.35,5 -13.52,11.45 -13.52,18.19 0,6.73 5.17,13.19 13.52,18.19 9.7,5.79 23.31,9.38 38.54,9.38 15.22,0 28.83,-3.59 38.53,-9.38 8.36,-5 13.53,-11.46 13.53,-18.19 0,-6.74 -5.17,-13.19 -13.53,-18.19z"/>
 </g>
</svg>
