<?xml version="1.0" encoding="UTF-8"?>
<!DOCTYPE svg PUBLIC "-//W3C//DTD SVG 1.1//EN" "http://www.w3.org/Graphics/SVG/1.1/DTD/svg11.dtd">
<!-- Creator: CorelDRAW 2019 (64-Bit) -->
<svg xmlns="http://www.w3.org/2000/svg" xml:space="preserve" width="2550px" height="2550px" version="1.1" style="shape-rendering:geometricPrecision; text-rendering:geometricPrecision; image-rendering:optimizeQuality; fill-rule:evenodd; clip-rule:evenodd"
viewBox="0 0 2550 2550"
 xmlns:xlink="http://www.w3.org/1999/xlink"
 xmlns:xodm="http://www.corel.com/coreldraw/odm/2003">
 <defs>
  <style type="text/css">
   <![CDATA[
    .fil0 {fill:url(#id0);fill-rule:nonzero}
    .fil1 {fill:url(#id1);fill-rule:nonzero}
   ]]>
  </style>
  <linearGradient id="id0" gradientUnits="userSpaceOnUse" x1="89.56" y1="1016.02" x2="1882.76" y2="1016.02">
   <stop offset="0" style="stop-opacity:1; stop-color:fuchsia"/>
   <stop offset="1" style="stop-opacity:1; stop-color:aqua"/>
  </linearGradient>
  <linearGradient id="id1" gradientUnits="userSpaceOnUse" xlink:href="#id0" x1="1113.37" y1="1581.15" x2="2392.7" y2="2052.77">
  </linearGradient>
 </defs>
 <g id="Layer_x0020_2">
  <metadata id="CorelCorpID_0Corel-Layer"/>
  <path class="fil0" d="M1128.68 1872.86c-55.82,-112.02 -199.04,-189.66 -360.71,-277.3 -274.4,-148.76 -600.21,-325.39 -671.48,-753.57 -19.13,-114.93 -0.04,-259.91 74.42,-376.88 59.58,-93.58 154.24,-169.25 292.57,-197.65 124.37,-25.54 224.04,-15.15 306.86,28.08 69.85,36.47 126.8,95.91 175.74,176.52 28.11,-94.4 80.92,-185.82 156.46,-252.32 76.3,-67.16 175.52,-109.05 295.67,-103.47 354.85,16.46 434.79,309.46 472.81,448.79l2.07 7.57 0.56 2.36c59.08,391.07 -180.2,645.79 -402.93,882.89 -128.37,136.66 -251.11,267.31 -303.87,412.78l-16.54 45.6 -21.63 -43.4zm-340.85 -313.92c150.28,81.46 285.18,154.61 356.03,257.96 61.51,-137.24 176.63,-259.81 296.59,-387.5 215.92,-229.85 447.86,-476.77 392.11,-847.66l-1.58 -5.78c-35.45,-129.92 -109.99,-403.13 -434.56,-418.19 -108.25,-5.02 -197.64,32.71 -266.37,93.22 -82.2,72.36 -135.25,177.1 -156.14,280.72l-38.73 5.54c-50.65,-96.79 -109.64,-166.08 -184.05,-204.92 -74.13,-38.7 -164.82,-47.7 -279.35,-24.18 -125.9,25.85 -211.89,94.46 -265.87,179.26 -68.57,107.7 -86.09,241.51 -68.41,347.75 67.92,408.04 384.07,579.43 650.33,723.78z"/>
  <path class="fil1" d="M1629.36 2465.74c-10.36,-94.6 -92.11,-187.66 -184.4,-292.7 -156.65,-178.3 -342.64,-390.01 -280.87,-714.22 16.58,-87.03 68.33,-185.44 152.22,-249.31 67.11,-51.09 154.55,-80.18 260.71,-64.06 95.44,14.48 163.82,48.12 211.53,100.74 40.24,44.38 65.25,101.77 78.95,172.15 44.89,-59.95 106.61,-111.29 178,-138.86 72.09,-27.85 153.89,-31.63 238.15,3.94 248.82,105.08 228.8,335.13 219.28,444.53l-0.52 5.95 -0.22 1.83c-60.7,294.54 -298.4,413.33 -519.67,523.91 -127.52,63.73 -249.45,124.66 -325.35,214.57l-23.79 28.18 -4.02 -36.65zm-160.61 -313.61c85.79,97.65 162.79,185.31 186.16,277.68 79.98,-81.74 194.35,-138.9 313.51,-198.45 214.49,-107.2 444.91,-222.35 502.68,-501.62l0.39 -4.54c8.88,-102.01 27.56,-316.53 -200.04,-412.64 -75.9,-32.05 -149.6,-28.64 -214.55,-3.55 -77.68,30 -143.07,90.78 -185.22,159.21l-29.1 -6.24c-10.68,-82.37 -34.53,-147.32 -77.4,-194.6 -42.71,-47.1 -105.05,-77.38 -192.94,-90.72 -96.63,-14.67 -176.01,11.66 -236.83,57.96 -77.24,58.81 -124.93,149.67 -140.26,230.11 -58.87,308.97 121.61,514.4 273.6,687.4z"/>
 </g>
</svg>
