<?xml version="1.0" encoding="UTF-8"?>
<!DOCTYPE svg PUBLIC "-//W3C//DTD SVG 1.1//EN" "http://www.w3.org/Graphics/SVG/1.1/DTD/svg11.dtd">
<!-- Creator: CorelDRAW 2019 (64-Bit) -->
<svg xmlns="http://www.w3.org/2000/svg" xml:space="preserve" width="1080px" height="1080px" version="1.1" style="shape-rendering:geometricPrecision; text-rendering:geometricPrecision; image-rendering:optimizeQuality; fill-rule:evenodd; clip-rule:evenodd"
viewBox="0 0 1080 1080"
 xmlns:xlink="http://www.w3.org/1999/xlink"
 xmlns:xodm="http://www.corel.com/coreldraw/odm/2003">
 <defs>
  <style type="text/css">
   <![CDATA[
    .fil0 {fill:url(#id0)}
   ]]>
  </style>
  <linearGradient id="id0" gradientUnits="userSpaceOnUse" x1="233.24" y1="545.25" x2="828.61" y2="545.25">
   <stop offset="0" style="stop-opacity:1; stop-color:#FAEE05"/>
   <stop offset="1" style="stop-opacity:1; stop-color:#FF8808"/>
  </linearGradient>
 </defs>
 <g id="Layer_x0020_2">
  <metadata id="CorelCorpID_0Corel-Layer"/>
  <path class="fil0" d="M415.32 298.74c1.06,8.13 -1.6,13.46 -6.43,17.42l35.08 10.69 1.69 -18.55c-2.19,-0.62 -4.44,-1.22 -6.71,-1.82 -7.74,-2.05 -15.61,-4.14 -23.63,-7.74zm154.43 184.02l-52.36 -102.74 5.31 -5.62 -73.81 -27.68 -69.18 -21.08 -0.27 -16.75c2.36,-0.81 5.11,-1.56 7.77,-2.29 3.82,-1.04 7.42,-2.02 9.45,-3.3 2.76,-1.73 1.94,-7.2 -9.27,-25.06l13.75 -10.82c14.12,14.56 28.45,18.36 42.29,22.03 3.96,1.05 7.88,2.09 12.05,3.44 18.55,-4.34 39.56,-13.48 56.15,-26.75 1.78,-1.42 3.51,-2.9 5.18,-4.42 -9.96,-3.42 -21.09,-8.03 -30.76,-14.55 -14.21,-9.59 -25.03,-22.94 -24.97,-41.97l-34.79 -14.19 -40.01 -16.33 -50.82 5.59 0.3 0.62c-22.12,55.76 -44.21,111.56 -66.16,167.38 60.14,84.58 120.25,169.17 180.4,253.75l0.25 0 -0.03 0.31 0.41 0.58 -0.47 -0.01c-13.44,140.71 -26.89,281.43 -40.15,422.16l116.51 -2.25c3.37,-53.36 6.77,-106.71 10.18,-160.06l0.42 0 13.68 0c-0.6,53.21 -1.24,106.42 -1.87,159.62l196.59 -3.79 -34.92 -417.7 -38.52 11.42 -0.44 -0.72 57.53 -58.86 62.78 -119.62 0 -39.91 -8.9 -1.9c-6.27,12.46 -12.49,24.96 -18.4,37.66l-1.06 1.73c-0.52,0.65 -1.06,1.29 -1.63,1.91l0.37 0.02c1.86,2.31 3.72,4.63 5.57,6.95l-2.15 7.16 -119.32 -0.67 -47.99 28.93 0.66 27.53 -0.09 0.28 -34.41 44.34 -0.79 -0.31 5.94 -64.06zm-62.41 -285.44l50.42 25.85 1.7 0.87 -3.37 6.72c-2.73,11.67 -8.32,22.22 -15.8,31.59l-2.88 5.76 -1.65 -0.49c-4.01,4.37 -8.44,8.46 -13.17,12.24 -17.64,14.11 -39.54,24.06 -59.35,29.25l-2.13 23.42 63.27 23.72 41.93 -37.95 58.79 -136.77 -9.33 -35.12 -53.72 -21.49 -24.92 1.02 -29.79 71.38zm-120.24 403.9l-153.32 -253.11 -0.46 -0.01 0.2 -0.41 -0.28 -0.47 0.52 0.01c30.9,-60.78 61.86,-121.54 92.79,-182.3l-0.14 -1.38 0.9 -0.1 0.04 -0.08 0.03 0.07 54.11 -5.94 38.54 -90.16 32.13 -11.21 6.17 0.14 57.58 23.16 4.54 4.17 12.76 24.89 30.03 -1.23 3.62 0.62 63.66 25.47 11.52 43.37c3.22,-0.98 6.64,-1.69 10.08,-2.15 8.77,-1.18 18.08,-0.74 24.02,0.97 16.68,4.81 29.15,11.59 42.36,18.76 4.14,2.25 8.36,4.55 12.46,6.65l3.99 4.14c2.66,5.75 2.6,13.42 1.32,21.22 3.14,-1.18 6.34,-1.92 9.53,-2.22 6.54,-0.62 12.99,0.54 18.69,3.32l54.26 26.47 4.07 4.07c2.61,5.35 4.75,12.28 5.5,19.36 0.66,6.26 0.26,12.72 -1.81,18.53 -3.8,10.66 -8.03,21.12 -12.55,31.44 -0.07,5.75 -0.2,11.21 -0.39,16.47l0 17.32 -2.38 18.48c-1.84,19.15 -4.5,38.41 -7.74,63.42l0.04 0.04 -0.08 0.23 -0.1 0.8 -0.14 -0.13 -44.11 124.44 -0.17 0.22 -16.68 11.24c4.13,149.71 8.3,299.42 12.25,449.14l-8.14 -0.74 -0.03 -0.37 -0.04 -0.48 -337.07 6.5 -0.05 0.51c-31.62,-0.43 -63.26,-0.88 -94.88,-1.34 24.25,-143.94 48.51,-287.89 72.85,-431.81zm85.23 -410.47l18.08 1.4 3.79 -9.08 25.8 -61.82 -13.68 -26.71 -51.49 -20.71 -21.66 7.56 -34 79.52 73.16 29.84zm21.38 19.33l-14.71 -1.13c1.47,10.16 8.29,17.79 16.91,23.61 9.87,6.66 22.2,11.17 32.43,14.41l7.61 -15.23 -42.24 -21.66zm160.69 -18.07c-4.27,0.57 -8.32,1.58 -11.22,3.08l-71.02 153.59c-1.57,3.39 -2.25,7.49 -2.25,11.73 0,3.64 0.51,7.29 1.39,10.66l45.14 17.74c7.69,1.85 15.55,1.8 22.32,0.18 5.89,-1.42 10.8,-3.98 13.72,-7.42 6.47,-14.58 13.81,-29.94 21.16,-45.3 14.45,-30.24 28.91,-60.49 39.68,-92.3 1.66,-4.89 3.88,-11.79 5.18,-18.44 0.81,-4.13 1.29,-8 1.02,-10.72 -3.31,-1.74 -6.39,-3.41 -9.43,-5.06 -12.37,-6.73 -24.06,-13.08 -38.78,-17.32 -3.81,-1.1 -10.35,-1.3 -16.91,-0.42zm93.06 49.59c-2.6,0.24 -5.24,1.06 -7.78,2.47l-71.05 146.01c-1.52,3.12 -2.18,6.89 -2.18,10.79 0,3.32 0.47,6.64 1.29,9.7l45.17 16.86c7.69,1.75 15.6,1.7 22.46,0.13 5.94,-1.35 10.86,-3.77 13.76,-6.99 6.72,-14.4 13.92,-28.7 21.11,-43.01 14.47,-28.76 28.95,-57.52 39.66,-87.58 1.12,-3.17 1.32,-6.97 0.91,-10.81 -0.41,-3.83 -1.4,-7.6 -2.68,-10.85l-51.36 -25.05c-2.85,-1.4 -6.07,-1.98 -9.31,-1.67zm-171.08 528.3l-4.63 -111.18 0.74 -0.34 17.68 16.35c-0.6,33.59 -1.32,67.2 -2,100.79l-11.78 -5.35 -0.01 -0.27z"/>
 </g>
</svg>
